<?xml version="1.0"?>
<svg xmlns="http://www.w3.org/2000/svg" xmlns:xlink="http://www.w3.org/1999/xlink" xmlns:svgjs="http://svgjs.com/svgjs" version="1.1" width="512" height="512" x="0" y="0" viewBox="0 0 512.002 512.002" style="enable-background:new 0 0 512 512" xml:space="preserve"><g><g xmlns="http://www.w3.org/2000/svg"><path d="m448.362 63.64-63.64-63.64-74.246 74.247 53.034 137.886z" fill="#ff3e3a" data-original="#ff3e3a" style=""/><path d="m448.362 63.64-116.672 116.673 106.066 21.213 74.246-74.246z" fill="#cc3245" data-original="#cc3245" style=""/><path d="m34.216 406.504-34.216 105.497 112.284-69.856z" fill="#373e9f" data-original="#373e9f" style=""/><path d="m.002 512.001 105.497-34.215-14.428-56.854z" fill="#340d66" data-original="#340d66" style=""/><path d="m188.374 366.055-127.279-42.426-26.879 82.875 35.641 35.641z" fill="#ffe7b5" data-original="#ffe7b5" style=""/><path d="m69.857 442.145 35.642 35.641 82.874-26.878-21.213-106.066z" fill="#ffd06a" data-original="#ffd06a" style=""/><path d="m124.734 387.269 63.639 63.639 249.383-249.382-63.64-63.639-166.169 81.316z" fill="#ff9a27" data-original="#ff9a27" style=""/><path d="m41.266 185.758h352.679v90h-352.679z" fill="#ffb820" transform="matrix(.707 -.707 .707 .707 -99.435 221.458)" data-original="#ffb820" style=""/></g></g></svg>
