<?xml version="1.0"?>
<svg xmlns="http://www.w3.org/2000/svg" xmlns:xlink="http://www.w3.org/1999/xlink" xmlns:svgjs="http://svgjs.com/svgjs" version="1.1" width="512" height="512" x="0" y="0" viewBox="0 0 512 512" style="enable-background:new 0 0 512 512" xml:space="preserve" class=""><g>
<path xmlns="http://www.w3.org/2000/svg" style="" d="M256,126.482c112.405,0,205.833,69.333,249.533,113.744c8.623,8.764,8.623,22.784,0,31.547  C461.833,316.185,368.405,385.518,256,385.518S50.167,316.185,6.467,271.774c-8.623-8.764-8.623-22.784,0-31.547  C50.167,195.815,143.595,126.482,256,126.482z" fill="#d1eff2" data-original="#d1eff2" class=""/>
<circle xmlns="http://www.w3.org/2000/svg" style="" cx="256" cy="256" r="129.52" fill="#76b7eb" data-original="#76b7eb" class=""/>
<path xmlns="http://www.w3.org/2000/svg" style="" d="M188.989,145.145c-37.467,22.697-62.507,63.851-62.507,110.855  c0,71.531,57.987,129.518,129.518,129.518c30.896,0,59.259-10.824,81.521-28.879C140.649,404.433,126.482,215.536,188.989,145.145z" fill="#000000" data-original="#000000" class=""/>
<circle xmlns="http://www.w3.org/2000/svg" style="" cx="256" cy="256" r="63.45" fill="#38648c" data-original="#38648c" class=""/>
<circle xmlns="http://www.w3.org/2000/svg" style="" cx="318.2" cy="222.06" r="29.963" fill="#ffffff" data-original="#ffffff"/>
<path xmlns="http://www.w3.org/2000/svg" style="" d="M11.028,235.683C54.499,208.841,151.566,152.988,256,152.988  s201.501,55.853,244.972,82.695c-45.421-44.435-136.331-109.2-244.972-109.2S56.449,191.248,11.028,235.683z" fill="#000000" data-original="#000000" class=""/>
<g xmlns="http://www.w3.org/2000/svg" style="opacity:0.1;">
	<path d="M335.722,328.347c-1.663,0-3.337-0.55-4.728-1.682l-9.153-7.445c-3.214-2.614-3.699-7.337-1.086-10.551   s7.338-3.7,10.551-1.086l9.153,7.445c3.214,2.614,3.699,7.337,1.086,10.551C340.063,327.402,337.901,328.347,335.722,328.347z" fill="#000000" data-original="#000000" style="" class=""/>
	<path d="M354.304,293.475c-0.725,0-1.461-0.106-2.19-0.328l-11.286-3.441c-3.962-1.208-6.194-5.399-4.986-9.361   s5.397-6.192,9.361-4.986l11.286,3.441c3.962,1.208,6.194,5.399,4.986,9.361C360.489,291.394,357.517,293.475,354.304,293.475z" fill="#000000" data-original="#000000" style="" class=""/>
	<path d="M246.549,365.833c-0.231,0-0.464-0.011-0.699-0.032c-4.124-0.381-7.159-4.034-6.777-8.159l1.086-11.749   c0.381-4.125,4.035-7.149,8.158-6.778c4.124,0.381,7.159,4.034,6.777,8.159l-1.086,11.749   C253.648,362.913,250.379,365.833,246.549,365.833z" fill="#000000" data-original="#000000" style="" class=""/>
	<path d="M156.446,289.026c-3.344,0-6.392-2.252-7.26-5.64c-1.029-4.012,1.39-8.099,5.402-9.127l11.43-2.93   c4.017-1.027,8.1,1.391,9.127,5.403c1.029,4.012-1.39,8.099-5.402,9.128l-11.43,2.93   C157.689,288.949,157.063,289.026,156.446,289.026z" fill="#000000" data-original="#000000" style="" class=""/>
	<path d="M207.562,186.504c-2.492,0-4.93-1.241-6.354-3.507l-6.284-9.987c-2.206-3.505-1.152-8.136,2.354-10.342   c3.504-2.206,8.137-1.153,10.342,2.354l6.284,9.987c2.206,3.505,1.152,8.136-2.354,10.342   C210.309,186.132,208.927,186.504,207.562,186.504z" fill="#000000" data-original="#000000" style="" class=""/>
	<path d="M298.113,182.87c-1.171,0-2.357-0.274-3.467-0.854c-3.671-1.918-5.093-6.449-3.175-10.12l5.463-10.458   c1.918-3.672,6.45-5.09,10.12-3.176c3.671,1.918,5.093,6.449,3.175,10.12l-5.463,10.459   C303.429,181.403,300.816,182.87,298.113,182.87z" fill="#000000" data-original="#000000" style="" class=""/>
</g>
<g xmlns="http://www.w3.org/2000/svg">
</g>
<g xmlns="http://www.w3.org/2000/svg">
</g>
<g xmlns="http://www.w3.org/2000/svg">
</g>
<g xmlns="http://www.w3.org/2000/svg">
</g>
<g xmlns="http://www.w3.org/2000/svg">
</g>
<g xmlns="http://www.w3.org/2000/svg">
</g>
<g xmlns="http://www.w3.org/2000/svg">
</g>
<g xmlns="http://www.w3.org/2000/svg">
</g>
<g xmlns="http://www.w3.org/2000/svg">
</g>
<g xmlns="http://www.w3.org/2000/svg">
</g>
<g xmlns="http://www.w3.org/2000/svg">
</g>
<g xmlns="http://www.w3.org/2000/svg">
</g>
<g xmlns="http://www.w3.org/2000/svg">
</g>
<g xmlns="http://www.w3.org/2000/svg">
</g>
<g xmlns="http://www.w3.org/2000/svg">
</g>
</g></svg>
